<?xml version="1.0" encoding="UTF-8"?>
<svg id="Layer_1" xmlns="http://www.w3.org/2000/svg" version="1.1" xmlns:xlink="http://www.w3.org/1999/xlink" viewBox="0 0 3032.55 1574.71">
  <!-- Generator: Adobe Illustrator 29.6.0, SVG Export Plug-In . SVG Version: 2.1.1 Build 207)  -->
  <defs>
    <style>
      .st0 {
        fill: url(#linear-gradient1);
      }

      .st1 {
        fill: #12455e;
      }

      .st2 {
        fill: url(#linear-gradient);
      }

      .st3 {
        fill: #e9f2f0;
      }
    </style>
    <linearGradient id="linear-gradient" x1="5020.74" y1="757.04" x2="5020.74" y2="851.29" gradientUnits="userSpaceOnUse">
      <stop offset="0" stop-color="#06dac2"/>
      <stop offset="1" stop-color="#12455e"/>
    </linearGradient>
    <linearGradient id="linear-gradient1" x1="606.59" y1="303" x2="606.59" y2="1018.52" xlink:href="#linear-gradient"/>
  </defs>
  <g>
    <g>
      <path class="st3" d="M5162.42,843.82v7.82h-67.72c-.27-8.62.44-17.14,4.37-24.69,7.87-15.13,25.93-19.11,39.04-25.83,10.02-5.14,17.51-11.02,16.21-25.09-1.64-17.75-21.08-18.96-33.16-17.25-10.25,1.45-18.33,6.85-18.79,19.72l-6.84-.93c.75-16,10.98-24.12,24.03-26.14,15.88-2.46,38.25.61,41.56,22.36,2.64,17.31-6.56,26.99-19.1,33.62-15.41,8.15-39.81,11.91-40.05,36.4h60.47Z"/>
      <path class="st3" d="M5245.52,833.08c-3.15,13.91-15.22,17.9-26.45,18.58-14.34.86-29.35-.68-43.76-.02v-7.82h47.37c7.02,0,15.4-5.54,16.28-14.08,1.71-16.54-9.68-19.49-20.92-23.41-16.59-5.78-47.46-8.5-42.55-36.59,2.35-13.44,13.36-18.12,24.19-18.85l42.55.02v7.36c-13.46.66-27.55-.88-40.93-.02-8.7.56-18.32,3.16-19.15,14.95-.46,6.6,1.24,11.16,6.19,14.58,17.22,11.91,65.35,9.15,57.17,45.3Z"/>
      <path class="st3" d="M5081.19,760.57c-.37.7-5.92,4.65-7.05,5.06v-14.03s.56-.69.6-.69h6.05c.86,0,.84,8.83.4,9.66Z"/>
      <path class="st3" d="M5081.18,769.76l-.4,81.88c-1.58-.34-4.72.47-6.05,0-.44-.16-.66-1.06-.62-1.59l.03-74.52c.3-1.81,5.5-4.74,7.04-5.77Z"/>
      <path class="st2" d="M5043.9,799.66c13.16-9.41,13.23-32.84.94-43.15-12.38-10.38-38.3-3.62-53.14-5.59-5.81.55-10.41,6.13-11.09,12.64v53.58l2.66-5.02,4.19-6.26c.68-12.71-.87-26.53,0-39.1.36-5.23,1.86-8.04,6.65-8.51,8.91-.87,29.28-1,37.86.53,11.89,2.12,17.89,13.66,13.87,26.75-4.27,13.89-17.56,11.05-27.52,11.84-25.7,2.02-38.6,26.78-37.7,54.27l53.43.02c13.28-.43,25.79-7.46,26.81-24.15.83-13.56-5.39-24.41-16.95-27.85ZM5037.65,843.82h-49.79c.57-15.44,7.94-31.48,21.26-36.68,8.36-3.27,28.46-4.04,36.26.72,14.69,8.97,9.68,35.96-7.73,35.96Z"/>
    </g>
    <g>
      <path class="st3" d="M5034.7,869.91c2.56,0,4.33,1.54,4.33,3.82,0,1.82-1.12,3.17-2.67,3.39,1.88.2,3.22,1.68,3.22,3.69,0,2.41-1.9,4.02-4.64,4.02h-6.69v-14.92h6.45ZM5036.64,874.16c0-1.22-.81-1.92-2.14-1.92h-3.84v3.99h3.85c1.28,0,2.14-.81,2.14-2.07ZM5034.71,882.49c1.65,0,2.48-.67,2.48-2.05s-.82-2.04-2.47-2.04h-4.06v4.09h4.05Z"/>
      <path class="st3" d="M5049.56,869.91v2.42h-6.53v3.88h5.99v2.35h-5.99v3.85h6.7v2.42h-9.11v-14.92h8.94Z"/>
      <path class="st3" d="M5061.33,874.51h-2.32c0-1.59-1.21-2.58-3-2.58-1.5,0-2.99.7-2.99,2.19,0,1.35,1.17,1.57,3.16,1.91l.61.1c2.2.38,5,.86,5,4.33,0,3.11-2.27,4.69-5.61,4.69-3.64,0-5.75-1.86-5.75-5.05h2.32c0,1.7,1.3,2.72,3.4,2.72,1.79,0,3.27-.75,3.27-2.35,0-1.48-1.2-1.7-3.03-2l-.77-.13c-2.2-.36-4.98-.81-4.98-4.1,0-3.05,2.39-4.64,5.39-4.64,3.24,0,5.3,1.86,5.3,4.92Z"/>
      <path class="st3" d="M5072.97,872.33h-4.25v12.5h-2.41v-12.5h-4.25v-2.42h10.91v2.42Z"/>
      <path class="st3" d="M5080.4,884.83h-2.41v-14.92h2.41v14.92Z"/>
      <path class="st3" d="M5092.36,874.51h-2.32c0-1.59-1.21-2.58-3-2.58-1.5,0-2.99.7-2.99,2.19,0,1.35,1.17,1.57,3.16,1.91l.61.1c2.2.38,5,.86,5,4.33,0,3.11-2.27,4.69-5.61,4.69-3.64,0-5.75-1.86-5.75-5.05h2.32c0,1.7,1.3,2.72,3.4,2.72,1.79,0,3.27-.75,3.27-2.35,0-1.48-1.2-1.7-3.03-2l-.77-.13c-2.2-.36-4.98-.81-4.98-4.1,0-3.05,2.39-4.64,5.39-4.64,3.24,0,5.3,1.86,5.3,4.92Z"/>
      <path class="st3" d="M5108.61,874.51h-2.32c0-1.59-1.21-2.58-3-2.58-1.5,0-2.99.7-2.99,2.19,0,1.35,1.17,1.57,3.16,1.91l.61.1c2.2.38,5,.86,5,4.33,0,3.11-2.27,4.69-5.61,4.69-3.64,0-5.75-1.86-5.75-5.05h2.32c0,1.7,1.3,2.72,3.4,2.72,1.79,0,3.27-.75,3.27-2.35,0-1.48-1.2-1.7-3.03-2l-.77-.13c-2.2-.36-4.98-.81-4.98-4.1,0-3.05,2.39-4.64,5.39-4.64,3.24,0,5.3,1.86,5.3,4.92Z"/>
      <path class="st3" d="M5116.14,869.59c3.7,0,6.27,3.12,6.27,7.77s-2.57,7.77-6.27,7.77-6.26-3.12-6.26-7.77,2.56-7.77,6.26-7.77ZM5116.14,882.71c2.42,0,3.85-1.96,3.85-5.34s-1.43-5.34-3.85-5.34-3.85,1.96-3.85,5.34,1.42,5.34,3.85,5.34Z"/>
      <path class="st3" d="M5126.07,869.91v12.5h6.34v2.42h-8.74v-14.92h2.41Z"/>
      <path class="st3" d="M5133.22,869.91h2.41v8.65c0,2.71,1.17,4.15,3.24,4.15s3.24-1.44,3.24-4.15v-8.65h2.4v8.77c0,4.01-2.25,6.47-5.64,6.47s-5.64-2.46-5.64-6.47v-8.77Z"/>
      <path class="st3" d="M5156.26,872.33h-4.25v12.5h-2.4v-12.5h-4.25v-2.42h10.91v2.42Z"/>
      <path class="st3" d="M5159.51,884.83h-2.41v-14.92h2.41v14.92Z"/>
      <path class="st3" d="M5167.04,869.59c3.7,0,6.27,3.12,6.27,7.77s-2.57,7.77-6.27,7.77-6.27-3.12-6.27-7.77,2.56-7.77,6.27-7.77ZM5167.04,882.71c2.42,0,3.85-1.96,3.85-5.34s-1.43-5.34-3.85-5.34-3.85,1.96-3.85,5.34,1.42,5.34,3.85,5.34Z"/>
      <path class="st3" d="M5186.36,884.83h-3.61l-5.86-12.75v12.75h-2.32v-14.92h3.88l5.59,12.12v-12.12h2.32v14.92Z"/>
      <path class="st3" d="M5198.3,874.51h-2.32c0-1.59-1.21-2.58-3-2.58-1.5,0-2.99.7-2.99,2.19,0,1.35,1.17,1.57,3.16,1.91l.61.1c2.2.38,5,.86,5,4.33,0,3.11-2.27,4.69-5.62,4.69-3.64,0-5.75-1.86-5.75-5.05h2.32c0,1.7,1.3,2.72,3.4,2.72,1.79,0,3.27-.75,3.27-2.35,0-1.48-1.2-1.7-3.03-2l-.77-.13c-2.2-.36-4.98-.81-4.98-4.1,0-3.05,2.39-4.64,5.39-4.64,3.24,0,5.3,1.86,5.3,4.92Z"/>
    </g>
  </g>
  <g>
    <g>
      <path class="st1" d="M1995.92,1013.72v67.2h-664.14c-2.69-74.1,4.34-147.31,42.82-212.14,77.15-130,254.25-164.19,382.83-221.97,98.3-44.18,171.68-94.7,158.94-215.62-16.07-152.53-206.73-162.92-325.17-148.22-100.53,12.47-179.78,58.9-184.3,169.5l-67.12-8.03c7.38-137.52,107.7-207.29,235.68-224.64,155.71-21.1,375.1,5.28,407.59,192.15,25.86,148.79-64.33,231.93-187.33,288.95-151.11,70.05-390.39,102.39-392.78,312.81h592.98Z"/>
      <path class="st1" d="M2810.89,921.44c-30.88,119.58-149.25,153.83-259.39,159.63l-429.09-.16v-67.2h464.51c68.8,0,151.04-47.62,159.68-120.98,16.73-142.16-94.95-167.5-205.16-201.15-162.69-49.68-465.41-73.01-417.27-314.47,21.88-109.8,120.55-153.51,221.46-162.81,9.01-.83,18.06-1.19,27.11-1.19l405.91-.84v66.24s-270.15-7.53-401.41-.16c-85.28,4.78-179.68,27.19-187.75,128.47-4.53,56.68,12.16,95.87,60.74,125.32,168.9,102.37,640.87,78.63,560.67,389.28Z"/>
      <path class="st1" d="M1199.32,295.12l-69.06,49.41-.1-132.4h69.15v82.99Z"/>
      <path class="st1" d="M1199.31,377.31l-3.92,703.61c-15.5-2.94-46.32,4.01-59.3,0-4.34-1.34-6.51-9.09-6.13-13.64l.31-640.43,69.05-49.54Z"/>
      <path class="st0" d="M833.67,634.22c129.05-80.91,129.72-282.23,9.2-370.83-121.38-89.22-521.11-48.07-521.11-48.07-56.99,4.73-102.11,52.68-108.75,108.66v460.47h0l67.13-96.91-.06-336.04c0-53.09,18.29-69.08,65.23-73.12,87.34-7.5,287.15-8.58,371.25,4.58,116.57,18.23,175.43,117.39,135.98,229.85-41.87,119.37-172.18,94.99-269.86,101.72-252.03,17.37-378.53,230.1-369.69,466.39l523.98.14c130.25-3.74,252.87-64.11,262.91-207.5,8.15-116.49-52.88-209.78-166.21-239.35ZM772.4,1013.72h-488.22c5.58-132.71,77.85-270.51,208.5-315.26,81.96-28.07,279.14-34.7,355.56,6.23,144.02,77.1,94.97,309.03-75.84,309.03Z"/>
    </g>
    <g>
      <path class="st1" d="M743.5,1237.92c25.11,0,42.42,13.27,42.42,32.87,0,15.65-10.99,27.26-26.19,29.1,18.48,1.71,31.61,14.4,31.61,31.75,0,20.72-18.65,34.53-45.47,34.53h-65.65v-128.24h63.27ZM762.51,1274.51c0-10.49-7.89-16.5-21.03-16.5h-37.67v34.25h37.76c12.56,0,20.94-6.95,20.94-17.76ZM743.54,1346.08c16.19,0,24.31-5.74,24.31-17.62s-8.07-17.53-24.26-17.53h-39.77v35.15h39.73Z"/>
      <path class="st1" d="M889.15,1237.92v20.8h-64.04v33.36h58.75v20.18h-58.75v33.1h65.74v20.8h-89.33v-128.24h87.62Z"/>
      <path class="st1" d="M1004.61,1277.47h-22.78c0-13.63-11.88-22.2-29.46-22.2-14.71,0-29.33,6.01-29.33,18.79,0,11.57,11.43,13.5,31.03,16.41l5.96.85c21.56,3.23,49.05,7.4,49.05,37.22,0,26.77-22.24,40.31-55.06,40.31-35.74,0-56.37-16.01-56.37-43.41h22.78c0,14.61,12.78,23.36,33.36,23.36,17.58,0,32.06-6.41,32.06-20.18,0-12.69-11.75-14.57-29.69-17.17l-7.53-1.12c-21.57-3.14-48.83-7-48.83-35.24,0-26.23,23.45-39.86,52.83-39.86,31.75,0,51.97,16.01,51.97,42.24Z"/>
      <path class="st1" d="M1118.72,1258.73h-41.7v107.44h-23.59v-107.44h-41.7v-20.8h106.99v20.8Z"/>
      <path class="st1" d="M1191.6,1366.17h-23.59v-128.24h23.59v128.24Z"/>
      <path class="st1" d="M1308.94,1277.47h-22.78c0-13.63-11.88-22.2-29.46-22.2-14.71,0-29.33,6.01-29.33,18.79,0,11.57,11.43,13.5,31.03,16.41l5.96.85c21.56,3.23,49.05,7.4,49.05,37.22,0,26.77-22.24,40.31-55.06,40.31-35.74,0-56.37-16.01-56.37-43.41h22.78c0,14.61,12.78,23.36,33.36,23.36,17.58,0,32.06-6.41,32.06-20.18,0-12.69-11.75-14.57-29.69-17.17l-7.53-1.12c-21.57-3.14-48.83-7-48.83-35.24,0-26.23,23.45-39.86,52.83-39.86,31.75,0,51.97,16.01,51.97,42.24Z"/>
      <path class="st1" d="M1468.22,1277.47h-22.78c0-13.63-11.88-22.2-29.46-22.2-14.71,0-29.33,6.01-29.33,18.79,0,11.57,11.43,13.5,31.03,16.41l5.96.85c21.56,3.23,49.05,7.4,49.05,37.22,0,26.77-22.24,40.31-55.06,40.31-35.74,0-56.37-16.01-56.37-43.41h22.78c0,14.61,12.78,23.36,33.36,23.36,17.58,0,32.06-6.41,32.06-20.18,0-12.69-11.75-14.57-29.69-17.17l-7.53-1.12c-21.57-3.14-48.83-7-48.83-35.24,0-26.23,23.45-39.86,52.83-39.86,31.75,0,51.97,16.01,51.97,42.24Z"/>
      <path class="st1" d="M1542.14,1235.23c36.28,0,61.48,26.81,61.48,66.81s-25.21,66.81-61.48,66.81-61.43-26.81-61.43-66.81,25.11-66.81,61.43-66.81ZM1542.14,1347.96c23.77,0,37.8-16.82,37.8-45.92s-14.03-45.92-37.8-45.92-37.76,16.82-37.76,45.92,13.95,45.92,37.76,45.92Z"/>
      <path class="st1" d="M1639.49,1237.92v107.44h62.15v20.8h-85.74v-128.24h23.59Z"/>
      <path class="st1" d="M1709.58,1237.92h23.59v74.35c0,23.32,11.43,35.69,31.74,35.69s31.75-12.38,31.75-35.69v-74.35h23.58v75.33c0,34.44-22.1,55.6-55.33,55.6s-55.33-21.17-55.33-55.6v-75.33Z"/>
      <path class="st1" d="M1935.5,1258.73h-41.7v107.44h-23.58v-107.44h-41.71v-20.8h106.99v20.8Z"/>
      <path class="st1" d="M1967.37,1366.17h-23.59v-128.24h23.59v128.24Z"/>
      <path class="st1" d="M2041.27,1235.23c36.28,0,61.47,26.81,61.47,66.81s-25.2,66.81-61.47,66.81-61.44-26.81-61.44-66.81,25.11-66.81,61.44-66.81ZM2041.27,1347.96c23.77,0,37.8-16.82,37.8-45.92s-14.03-45.92-37.8-45.92-37.76,16.82-37.76,45.92,13.94,45.92,37.76,45.92Z"/>
      <path class="st1" d="M2230.67,1366.17h-35.39l-57.48-109.55v109.55h-22.79v-128.24h38.07l54.79,104.12v-104.12h22.79v128.24Z"/>
      <path class="st1" d="M2347.84,1277.47h-22.77c0-13.63-11.89-22.2-29.46-22.2-14.71,0-29.32,6.01-29.32,18.79,0,11.57,11.43,13.5,31.03,16.41l5.96.85c21.57,3.23,49.05,7.4,49.05,37.22,0,26.77-22.24,40.31-55.07,40.31-35.74,0-56.37-16.01-56.37-43.41h22.79c0,14.61,12.78,23.36,33.37,23.36,17.58,0,32.06-6.41,32.06-20.18,0-12.69-11.76-14.57-29.69-17.17l-7.53-1.12c-21.57-3.14-48.84-7-48.84-35.24,0-26.23,23.46-39.86,52.82-39.86,31.75,0,51.97,16.01,51.97,42.24Z"/>
    </g>
  </g>
</svg>